<?xml version="1.0" encoding="UTF-8"?>
<!DOCTYPE svg PUBLIC "-//W3C//DTD SVG 1.1//EN" "http://www.w3.org/Graphics/SVG/1.1/DTD/svg11.dtd">
<svg xmlns="http://www.w3.org/2000/svg" version="1.1" width="261px" height="254px" style="shape-rendering:geometricPrecision; text-rendering:geometricPrecision; image-rendering:optimizeQuality; fill-rule:evenodd; clip-rule:evenodd" xmlns:xlink="http://www.w3.org/1999/xlink">
<g><path style="opacity:1" fill="#fdfefe" d="M 186.5,-0.5 C 203.833,-0.5 221.167,-0.5 238.5,-0.5C 238.5,24.5 238.5,49.5 238.5,74.5C 235.167,74.5 231.833,74.5 228.5,74.5C 226.896,73.713 226.229,72.3797 226.5,70.5C 227.799,68.8466 227.466,67.3466 225.5,66C 223.934,65.235 222.601,65.4017 221.5,66.5C 219.694,67.0241 218.028,67.6908 216.5,68.5C 214.712,69.3604 213.045,70.3604 211.5,71.5C 210.167,71.5 209.5,72.1667 209.5,73.5C 205.6,74.4299 201.6,74.7633 197.5,74.5C 193.833,74.5 190.167,74.5 186.5,74.5C 186.5,49.5 186.5,24.5 186.5,-0.5 Z"/></g>
<g><path style="opacity:1" fill="#fefefe" d="M 239.5,-0.5 C 246.5,-0.5 253.5,-0.5 260.5,-0.5C 260.5,24.5 260.5,49.5 260.5,74.5C 253.5,74.5 246.5,74.5 239.5,74.5C 239.5,49.5 239.5,24.5 239.5,-0.5 Z"/></g>
<g><path style="opacity:1" fill="#a0dbdc" d="M 226.5,70.5 C 225.107,68.1168 223.441,66.7835 221.5,66.5C 223.441,66.7835 225.107,68.1168 226.5,70.5 Z"/></g>
<g><path style="opacity:1" fill="#e5e5e5" d="M 238.5,-0.5 C 238.833,-0.5 239.167,-0.5 239.5,-0.5C 239.5,24.5 239.5,49.5 239.5,74.5C 246.5,74.5 253.5,74.5 260.5,74.5C 260.5,74.8333 260.5,75.1667 260.5,75.5C 253.5,75.5 246.5,75.5 239.5,75.5C 239.5,98.5 239.5,121.5 239.5,144.5C 238.49,125.521 238.157,102.521 238.5,75.5C 235.167,75.5 231.833,75.5 228.5,75.5C 228.5,75.1667 228.5,74.8333 228.5,74.5C 231.833,74.5 235.167,74.5 238.5,74.5C 238.5,49.5 238.5,24.5 238.5,-0.5 Z"/></g>
<g><path style="opacity:1" fill="#fefefe" d="M 53.5,155.5 C 50.2916,157.074 48.9582,159.741 49.5,163.5C 42.5,163.5 35.5,163.5 28.5,163.5C 28.5,134.167 28.5,104.833 28.5,75.5C 36.8333,75.5 45.1667,75.5 53.5,75.5C 53.5,102.167 53.5,128.833 53.5,155.5 Z"/></g>
<g><path style="opacity:1" fill="#e4e5e4" d="M 0.5,-0.5 C 0.833333,-0.5 1.16667,-0.5 1.5,-0.5C 1.5,24.5 1.5,49.5 1.5,74.5C 10.1667,74.5 18.8333,74.5 27.5,74.5C 27.5,49.5 27.5,24.5 27.5,-0.5C 27.8333,-0.5 28.1667,-0.5 28.5,-0.5C 28.5,24.5 28.5,49.5 28.5,74.5C 36.8333,74.5 45.1667,74.5 53.5,74.5C 53.5,49.5 53.5,24.5 53.5,-0.5C 53.8333,-0.5 54.1667,-0.5 54.5,-0.5C 54.5,24.5 54.5,49.5 54.5,74.5C 63.1667,74.5 71.8333,74.5 80.5,74.5C 80.5,49.5 80.5,24.5 80.5,-0.5C 80.8333,-0.5 81.1667,-0.5 81.5,-0.5C 81.5,24.5 81.5,49.5 81.5,74.5C 89.8333,74.5 98.1667,74.5 106.5,74.5C 106.5,49.5 106.5,24.5 106.5,-0.5C 106.833,-0.5 107.167,-0.5 107.5,-0.5C 107.5,24.5 107.5,49.5 107.5,74.5C 116.167,74.5 124.833,74.5 133.5,74.5C 133.5,49.5 133.5,24.5 133.5,-0.5C 133.833,-0.5 134.167,-0.5 134.5,-0.5C 134.5,24.5 134.5,49.5 134.5,74.5C 142.833,74.5 151.167,74.5 159.5,74.5C 159.5,49.5 159.5,24.5 159.5,-0.5C 159.833,-0.5 160.167,-0.5 160.5,-0.5C 160.5,24.5 160.5,49.5 160.5,74.5C 168.833,74.5 177.167,74.5 185.5,74.5C 185.5,49.5 185.5,24.5 185.5,-0.5C 185.833,-0.5 186.167,-0.5 186.5,-0.5C 186.5,24.5 186.5,49.5 186.5,74.5C 190.167,74.5 193.833,74.5 197.5,74.5C 197.158,75.3382 196.492,75.6716 195.5,75.5C 192.5,75.5 189.5,75.5 186.5,75.5C 186.177,81.69 186.51,87.69 187.5,93.5C 187.167,94.1667 186.833,94.8333 186.5,95.5C 186.167,95.5 185.833,95.5 185.5,95.5C 185.5,88.8333 185.5,82.1667 185.5,75.5C 177.167,75.5 168.833,75.5 160.5,75.5C 160.167,124.833 159.833,124.833 159.5,75.5C 151.167,75.5 142.833,75.5 134.5,75.5C 134.5,97.8333 134.5,120.167 134.5,142.5C 134.737,143.791 134.404,144.791 133.5,145.5C 133.5,122.167 133.5,98.8333 133.5,75.5C 124.833,75.5 116.167,75.5 107.5,75.5C 107.5,102.167 107.5,128.833 107.5,155.5C 107.167,155.5 106.833,155.5 106.5,155.5C 106.5,128.833 106.5,102.167 106.5,75.5C 98.1667,75.5 89.8333,75.5 81.5,75.5C 81.5,96.5 81.5,117.5 81.5,138.5C 81.1667,138.5 80.8333,138.5 80.5,138.5C 80.5,137.833 80.5,137.167 80.5,136.5C 80.5,116.167 80.5,95.8333 80.5,75.5C 71.8333,75.5 63.1667,75.5 54.5,75.5C 54.5,99.5 54.5,123.5 54.5,147.5C 54.8064,150.385 54.4731,153.052 53.5,155.5C 53.5,128.833 53.5,102.167 53.5,75.5C 45.1667,75.5 36.8333,75.5 28.5,75.5C 28.5,104.833 28.5,134.167 28.5,163.5C 35.5,163.5 42.5,163.5 49.5,163.5C 49.5,163.833 49.5,164.167 49.5,164.5C 42.5,164.5 35.5,164.5 28.5,164.5C 28.5,170.167 28.5,175.833 28.5,181.5C 27.596,180.791 27.2627,179.791 27.5,178.5C 27.5,173.833 27.5,169.167 27.5,164.5C 18.8333,164.5 10.1667,164.5 1.5,164.5C 0.470184,125.507 0.136851,70.5072 0.5,-0.5 Z"/></g>
<g><path style="opacity:1" fill="#fefefe" d="M 1.5,75.5 C 10.1667,75.5 18.8333,75.5 27.5,75.5C 27.5,104.833 27.5,134.167 27.5,163.5C 18.8333,163.5 10.1667,163.5 1.5,163.5C 1.5,134.167 1.5,104.833 1.5,75.5 Z"/></g>
<g><path style="opacity:1" fill="#fefefe" d="M 160.5,-0.5 C 168.833,-0.5 177.167,-0.5 185.5,-0.5C 185.5,24.5 185.5,49.5 185.5,74.5C 177.167,74.5 168.833,74.5 160.5,74.5C 160.5,49.5 160.5,24.5 160.5,-0.5 Z"/></g>
<g><path style="opacity:1" fill="#fefefe" d="M 134.5,-0.5 C 142.833,-0.5 151.167,-0.5 159.5,-0.5C 159.5,24.5 159.5,49.5 159.5,74.5C 151.167,74.5 142.833,74.5 134.5,74.5C 134.5,49.5 134.5,24.5 134.5,-0.5 Z"/></g>
<g><path style="opacity:1" fill="#fefefe" d="M 107.5,-0.5 C 116.167,-0.5 124.833,-0.5 133.5,-0.5C 133.5,24.5 133.5,49.5 133.5,74.5C 124.833,74.5 116.167,74.5 107.5,74.5C 107.5,49.5 107.5,24.5 107.5,-0.5 Z"/></g>
<g><path style="opacity:1" fill="#fefefe" d="M 81.5,-0.5 C 89.8333,-0.5 98.1667,-0.5 106.5,-0.5C 106.5,24.5 106.5,49.5 106.5,74.5C 98.1667,74.5 89.8333,74.5 81.5,74.5C 81.5,49.5 81.5,24.5 81.5,-0.5 Z"/></g>
<g><path style="opacity:1" fill="#fefefe" d="M 54.5,-0.5 C 63.1667,-0.5 71.8333,-0.5 80.5,-0.5C 80.5,24.5 80.5,49.5 80.5,74.5C 71.8333,74.5 63.1667,74.5 54.5,74.5C 54.5,49.5 54.5,24.5 54.5,-0.5 Z"/></g>
<g><path style="opacity:1" fill="#fefefe" d="M 28.5,-0.5 C 36.8333,-0.5 45.1667,-0.5 53.5,-0.5C 53.5,24.5 53.5,49.5 53.5,74.5C 45.1667,74.5 36.8333,74.5 28.5,74.5C 28.5,49.5 28.5,24.5 28.5,-0.5 Z"/></g>
<g><path style="opacity:1" fill="#fefefe" d="M 1.5,-0.5 C 10.1667,-0.5 18.8333,-0.5 27.5,-0.5C 27.5,24.5 27.5,49.5 27.5,74.5C 18.8333,74.5 10.1667,74.5 1.5,74.5C 1.5,49.5 1.5,24.5 1.5,-0.5 Z"/></g>
<g><path style="opacity:1" fill="#fefefe" d="M 80.5,136.5 C 77.966,136.386 75.2993,136.719 72.5,137.5C 70.7298,140.193 70.0632,143.193 70.5,146.5C 64.9881,145.639 60.1548,146.973 56,150.5C 55.7679,149.263 55.2679,148.263 54.5,147.5C 54.5,123.5 54.5,99.5 54.5,75.5C 63.1667,75.5 71.8333,75.5 80.5,75.5C 80.5,95.8333 80.5,116.167 80.5,136.5 Z"/></g>
<g><path style="opacity:1" fill="#fefefe" d="M 106.5,155.5 C 105.5,155.833 104.833,156.5 104.5,157.5C 103.005,157.989 101.671,158.655 100.5,159.5C 99.2436,159.904 98.0769,160.571 97,161.5C 95.9701,161.164 95.4701,160.497 95.5,159.5C 95.7845,157.585 95.4511,155.919 94.5,154.5C 94.1667,153.833 93.8333,153.167 93.5,152.5C 91.6998,150.95 89.5332,149.95 87,149.5C 85.5684,146.998 85.4018,144.498 86.5,142C 85.9221,140.583 84.9221,139.75 83.5,139.5C 82.8333,139.167 82.1667,138.833 81.5,138.5C 81.5,117.5 81.5,96.5 81.5,75.5C 89.8333,75.5 98.1667,75.5 106.5,75.5C 106.5,102.167 106.5,128.833 106.5,155.5 Z"/></g>
<g><path style="opacity:1" fill="#fdfefe" d="M 133.5,145.5 C 133.995,147.452 134.328,149.452 134.5,151.5C 133.005,155.287 132.338,159.287 132.5,163.5C 129.167,163.5 125.833,163.5 122.5,163.5C 122.296,160.482 121.963,157.482 121.5,154.5C 121.768,152.901 121.434,151.568 120.5,150.5C 120.5,149.833 120.167,149.5 119.5,149.5C 116.668,147.889 114.668,148.722 113.5,152C 113.57,152.765 113.903,153.265 114.5,153.5C 114.598,155.553 113.931,157.22 112.5,158.5C 110.999,157.248 109.332,156.248 107.5,155.5C 107.5,128.833 107.5,102.167 107.5,75.5C 116.167,75.5 124.833,75.5 133.5,75.5C 133.5,98.8333 133.5,122.167 133.5,145.5 Z"/></g>
<g><path style="opacity:1" fill="#fdfefe" d="M 185.5,95.5 C 183.738,96.2623 182.738,97.5956 182.5,99.5C 180.067,99.2729 178.401,100.273 177.5,102.5C 177.5,103.5 177.5,104.5 177.5,105.5C 176.209,105.737 175.209,105.404 174.5,104.5C 173.294,101.861 171.294,101.028 168.5,102C 166.845,103.444 166.178,105.278 166.5,107.5C 162.686,107.651 161.019,109.651 161.5,113.5C 158.311,113.858 155.311,114.525 152.5,115.5C 150.896,116.287 150.229,117.62 150.5,119.5C 149.5,120.167 148.5,120.833 147.5,121.5C 146.5,121.833 145.833,122.5 145.5,123.5C 145.5,124.5 145.5,125.5 145.5,126.5C 144.209,126.263 143.209,126.596 142.5,127.5C 141.5,127.5 140.5,127.5 139.5,127.5C 139.5,130.833 139.5,134.167 139.5,137.5C 139.598,139.553 138.931,141.22 137.5,142.5C 136.5,142.5 135.5,142.5 134.5,142.5C 134.5,120.167 134.5,97.8333 134.5,75.5C 142.833,75.5 151.167,75.5 159.5,75.5C 159.833,124.833 160.167,124.833 160.5,75.5C 168.833,75.5 177.167,75.5 185.5,75.5C 185.5,82.1667 185.5,88.8333 185.5,95.5 Z"/></g>
<g><path style="opacity:1" fill="#f9fcfd" d="M 195.5,75.5 C 193.475,78.3268 191.808,81.3268 190.5,84.5C 189.833,84.5 189.5,84.8333 189.5,85.5C 188.883,85.6107 188.383,85.944 188,86.5C 187.505,88.4727 187.338,90.4727 187.5,92.5C 187.5,92.8333 187.5,93.1667 187.5,93.5C 186.51,87.69 186.177,81.69 186.5,75.5C 189.5,75.5 192.5,75.5 195.5,75.5 Z"/></g>
<g><path style="opacity:1" fill="#99d1d0" d="M 207.5,76.5 C 204.623,78.3063 201.623,78.9729 198.5,78.5C 199.191,76.9778 200.358,75.9778 202,75.5C 203.766,76.2335 205.599,76.5668 207.5,76.5 Z"/></g>
<g><path style="opacity:1" fill="#f8fefd" d="M 228.5,75.5 C 231.833,75.5 235.167,75.5 238.5,75.5C 238.157,102.521 238.49,125.521 239.5,144.5C 241.836,142.609 244.502,142.109 247.5,143C 248.252,143.671 248.586,144.504 248.5,145.5C 247.18,144.058 245.514,143.392 243.5,143.5C 240.908,145.036 239.908,147.369 240.5,150.5C 240.158,151.338 239.492,151.672 238.5,151.5C 238.167,151.5 237.833,151.5 237.5,151.5C 236.5,151.5 235.5,151.5 234.5,151.5C 234.813,147.958 234.479,144.625 233.5,141.5C 232.954,126.16 232.288,110.827 231.5,95.5C 231.282,90.7885 231.615,86.1219 232.5,81.5C 232.547,79.9623 231.88,78.9623 230.5,78.5C 229.449,77.7777 228.782,76.7777 228.5,75.5 Z"/></g>
<g><path style="opacity:1" fill="#fefefe" d="M 260.5,75.5 C 260.5,104.167 260.5,132.833 260.5,161.5C 259.508,161.328 258.842,161.662 258.5,162.5C 257.833,162.833 257.167,163.167 256.5,163.5C 254.5,163.5 252.5,163.5 250.5,163.5C 250.379,158.219 249.712,153.552 248.5,149.5C 248.5,148.167 248.5,146.833 248.5,145.5C 248.586,144.504 248.252,143.671 247.5,143C 244.502,142.109 241.836,142.609 239.5,144.5C 239.5,121.5 239.5,98.5 239.5,75.5C 246.5,75.5 253.5,75.5 260.5,75.5 Z"/></g>
<g><path style="opacity:1" fill="#def6f8" d="M 209.5,73.5 C 209.715,75.1788 209.048,76.1788 207.5,76.5C 205.599,76.5668 203.766,76.2335 202,75.5C 200.358,75.9778 199.191,76.9778 198.5,78.5C 194.092,78.062 192.425,80.062 193.5,84.5C 192.5,84.5 191.5,84.5 190.5,84.5C 191.808,81.3268 193.475,78.3268 195.5,75.5C 196.492,75.6716 197.158,75.3382 197.5,74.5C 201.6,74.7633 205.6,74.4299 209.5,73.5 Z"/></g>
<g><path style="opacity:1" fill="#6cc3c2" d="M 221.5,66.5 C 223.441,66.7835 225.107,68.1168 226.5,70.5C 226.229,72.3797 226.896,73.713 228.5,74.5C 228.5,74.8333 228.5,75.1667 228.5,75.5C 228.782,76.7777 229.449,77.7777 230.5,78.5C 228.933,79.6808 228.099,81.3474 228,83.5C 227.764,81.8807 226.931,80.8807 225.5,80.5C 225.852,74.1308 223.519,72.4641 218.5,75.5C 217.508,75.3284 216.842,75.6618 216.5,76.5C 213.65,75.0719 212.65,75.7386 213.5,78.5C 212.508,78.3284 211.842,78.6618 211.5,79.5C 211.167,79.5 210.833,79.5 210.5,79.5C 208.887,80.6923 207.22,81.6923 205.5,82.5C 201.116,81.5755 197.782,82.9088 195.5,86.5C 196.157,89.8408 194.824,91.8408 191.5,92.5C 190.544,94.0754 189.877,95.742 189.5,97.5C 187.821,97.7148 186.821,97.0481 186.5,95.5C 186.833,94.8333 187.167,94.1667 187.5,93.5C 187.5,93.1667 187.5,92.8333 187.5,92.5C 188.416,90.185 189.75,88.0183 191.5,86C 190.906,85.5357 190.239,85.369 189.5,85.5C 189.5,84.8333 189.833,84.5 190.5,84.5C 191.5,84.5 192.5,84.5 193.5,84.5C 192.425,80.062 194.092,78.062 198.5,78.5C 201.623,78.9729 204.623,78.3063 207.5,76.5C 209.048,76.1788 209.715,75.1788 209.5,73.5C 209.5,72.1667 210.167,71.5 211.5,71.5C 213.045,70.3604 214.712,69.3604 216.5,68.5C 218.028,67.6908 219.694,67.0241 221.5,66.5 Z"/></g>
<g><path style="opacity:1" fill="#b4f8f8" d="M 210.5,79.5 C 209.952,82.0838 208.285,83.0838 205.5,82.5C 207.22,81.6923 208.887,80.6923 210.5,79.5 Z"/></g>
<g><path style="opacity:1" fill="#a0d8da" d="M 216.5,76.5 C 215.71,77.4013 214.71,78.0679 213.5,78.5C 212.65,75.7386 213.65,75.0719 216.5,76.5 Z"/></g>
<g><path style="opacity:1" fill="#def6f5" d="M 225.5,80.5 C 225.5,81.1667 225.5,81.8333 225.5,82.5C 224.549,81.0813 224.216,79.4147 224.5,77.5C 222.297,77.3964 220.297,76.7298 218.5,75.5C 223.519,72.4641 225.852,74.1308 225.5,80.5 Z"/></g>
<g><path style="opacity:1" fill="#b2f5f6" d="M 211.5,71.5 C 213.657,72.0533 213.49,73.0533 211,74.5C 210.53,73.4232 210.697,72.4232 211.5,71.5 Z"/></g>
<g><path style="opacity:1" fill="#abf7f3" d="M 216.5,68.5 C 220.339,68.6121 220.339,69.2787 216.5,70.5C 215.537,70.0302 215.537,69.3635 216.5,68.5 Z"/></g>
<g><path style="opacity:1" fill="#93cbcd" d="M 210.5,79.5 C 210.833,79.5 211.167,79.5 211.5,79.5C 211.67,80.8221 211.337,81.9887 210.5,83C 207.167,83.3333 203.833,83.6667 200.5,84C 199.529,85.4813 198.196,86.3146 196.5,86.5C 196.167,86.5 195.833,86.5 195.5,86.5C 197.782,82.9088 201.116,81.5755 205.5,82.5C 208.285,83.0838 209.952,82.0838 210.5,79.5 Z"/></g>
<g><path style="opacity:1" fill="#87ced0" d="M 230.5,78.5 C 231.88,78.9623 232.547,79.9623 232.5,81.5C 231.615,86.1219 231.282,90.7885 231.5,95.5C 230.518,92.0381 230.185,88.3714 230.5,84.5C 229.5,84.5 228.5,84.5 227.5,84.5C 227.167,84.5 226.833,84.5 226.5,84.5C 225.662,84.1583 225.328,83.4916 225.5,82.5C 225.5,81.8333 225.5,81.1667 225.5,80.5C 226.931,80.8807 227.764,81.8807 228,83.5C 228.099,81.3474 228.933,79.6808 230.5,78.5 Z"/></g>
<g><path style="opacity:1" fill="#fefefe" d="M 218.5,75.5 C 220.297,76.7298 222.297,77.3964 224.5,77.5C 224.216,79.4147 224.549,81.0813 225.5,82.5C 225.328,83.4916 225.662,84.1583 226.5,84.5C 226.333,95.1719 226.5,105.839 227,116.5C 227.278,117.416 227.778,118.082 228.5,118.5C 228.5,118.833 228.5,119.167 228.5,119.5C 228.333,132.504 228.5,145.504 229,158.5C 230.269,159.905 230.769,161.571 230.5,163.5C 224.833,163.5 219.167,163.5 213.5,163.5C 213.167,52.8333 212.833,52.8333 212.5,163.5C 203.833,163.5 195.167,163.5 186.5,163.5C 186.5,143.5 186.5,123.5 186.5,103.5C 188.076,102.857 189.41,101.857 190.5,100.5C 191.291,97.6677 192.624,95.001 194.5,92.5C 195.5,92 196.5,91.5 197.5,91C 196.62,89.6439 196.286,88.1439 196.5,86.5C 198.196,86.3146 199.529,85.4813 200.5,84C 203.833,83.6667 207.167,83.3333 210.5,83C 211.337,81.9887 211.67,80.8221 211.5,79.5C 211.842,78.6618 212.508,78.3284 213.5,78.5C 214.71,78.0679 215.71,77.4013 216.5,76.5C 216.842,75.6618 217.508,75.3284 218.5,75.5 Z"/></g>
<g><path style="opacity:1" fill="#afe5e1" d="M 189.5,85.5 C 190.239,85.369 190.906,85.5357 191.5,86C 189.75,88.0183 188.416,90.185 187.5,92.5C 187.338,90.4727 187.505,88.4727 188,86.5C 188.383,85.944 188.883,85.6107 189.5,85.5 Z"/></g>
<g><path style="opacity:1" fill="#e8fcfc" d="M 195.5,86.5 C 195.833,86.5 196.167,86.5 196.5,86.5C 196.286,88.1439 196.62,89.6439 197.5,91C 196.5,91.5 195.5,92 194.5,92.5C 192.624,95.001 191.291,97.6677 190.5,100.5C 190.737,99.209 190.404,98.209 189.5,97.5C 189.877,95.742 190.544,94.0754 191.5,92.5C 194.824,91.8408 196.157,89.8408 195.5,86.5 Z"/></g>
<g><path style="opacity:1" fill="#8accce" d="M 185.5,95.5 C 185.833,95.5 186.167,95.5 186.5,95.5C 186.821,97.0481 187.821,97.7148 189.5,97.5C 190.404,98.209 190.737,99.209 190.5,100.5C 189.41,101.857 188.076,102.857 186.5,103.5C 185.5,103.833 184.833,104.5 184.5,105.5C 184.027,106.906 183.027,107.573 181.5,107.5C 183.284,105.052 184.618,102.385 185.5,99.5C 184.5,99.5 183.5,99.5 182.5,99.5C 182.738,97.5956 183.738,96.2623 185.5,95.5 Z"/></g>
<g><path style="opacity:1" fill="#a5d5d7" d="M 174.5,104.5 C 173.009,104.901 171.342,105.068 169.5,105C 168.627,106.045 167.627,106.878 166.5,107.5C 166.178,105.278 166.845,103.444 168.5,102C 171.294,101.028 173.294,101.861 174.5,104.5 Z"/></g>
<g><path style="opacity:1" fill="#a1dedf" d="M 182.5,99.5 C 181.836,101.487 180.669,103.154 179,104.5C 178.722,103.584 178.222,102.918 177.5,102.5C 178.401,100.273 180.067,99.2729 182.5,99.5 Z"/></g>
<g><path style="opacity:1" fill="#e9fefd" d="M 226.5,84.5 C 226.833,84.5 227.167,84.5 227.5,84.5C 228.181,95.8205 228.514,107.154 228.5,118.5C 227.778,118.082 227.278,117.416 227,116.5C 226.5,105.839 226.333,95.1719 226.5,84.5 Z"/></g>
<g><path style="opacity:1" fill="#69c3c2" d="M 182.5,99.5 C 183.5,99.5 184.5,99.5 185.5,99.5C 184.618,102.385 183.284,105.052 181.5,107.5C 180.022,108.448 179.022,109.781 178.5,111.5C 178.631,110.761 178.464,110.094 178,109.5C 176.667,110.833 175.333,110.833 174,109.5C 173.536,110.094 173.369,110.761 173.5,111.5C 170.751,108.533 169.251,109.2 169,113.5C 167.89,115.037 166.39,115.703 164.5,115.5C 162.756,117.887 160.422,119.554 157.5,120.5C 156.276,119.234 154.943,118.067 153.5,117C 157.226,115.957 156.893,115.457 152.5,115.5C 155.311,114.525 158.311,113.858 161.5,113.5C 161.019,109.651 162.686,107.651 166.5,107.5C 167.627,106.878 168.627,106.045 169.5,105C 171.342,105.068 173.009,104.901 174.5,104.5C 175.209,105.404 176.209,105.737 177.5,105.5C 177.5,104.5 177.5,103.5 177.5,102.5C 178.222,102.918 178.722,103.584 179,104.5C 180.669,103.154 181.836,101.487 182.5,99.5 Z"/></g>
<g><path style="opacity:1" fill="#aad7d8" d="M 178.5,111.5 C 177.252,113.69 175.586,114.023 173.5,112.5C 173.5,112.167 173.5,111.833 173.5,111.5C 173.369,110.761 173.536,110.094 174,109.5C 175.333,110.833 176.667,110.833 178,109.5C 178.464,110.094 178.631,110.761 178.5,111.5 Z"/></g>
<g><path style="opacity:1" fill="#65bcbc" d="M 227.5,84.5 C 228.5,84.5 229.5,84.5 230.5,84.5C 230.185,88.3714 230.518,92.0381 231.5,95.5C 232.288,110.827 232.954,126.16 233.5,141.5C 233.773,148.504 234.106,155.504 234.5,162.5C 234.71,168.966 235.377,168.966 236.5,162.5C 236.5,161.833 236.5,161.167 236.5,160.5C 237.404,159.791 237.737,158.791 237.5,157.5C 238.391,158.11 239.391,158.443 240.5,158.5C 239.592,162.758 238.925,167.092 238.5,171.5C 236.61,174.637 236.276,177.97 237.5,181.5C 237.5,182.5 237.5,183.5 237.5,184.5C 235.615,186.053 234.615,188.053 234.5,190.5C 233.833,190.167 233.167,189.833 232.5,189.5C 232.664,186.813 232.497,184.146 232,181.5C 230.957,185.226 230.457,184.893 230.5,180.5C 231.117,180.389 231.617,180.056 232,179.5C 231.684,159.315 230.517,139.315 228.5,119.5C 228.5,119.167 228.5,118.833 228.5,118.5C 228.514,107.154 228.181,95.8205 227.5,84.5 Z"/></g>
<g><path style="opacity:1" fill="#8cd1cf" d="M 152.5,115.5 C 156.893,115.457 157.226,115.957 153.5,117C 154.943,118.067 156.276,119.234 157.5,120.5C 160.422,119.554 162.756,117.887 164.5,115.5C 164.528,117.582 163.861,119.416 162.5,121C 159.518,121.498 156.518,121.665 153.5,121.5C 153.598,118.752 152.598,118.086 150.5,119.5C 150.229,117.62 150.896,116.287 152.5,115.5 Z"/></g>
<g><path style="opacity:1" fill="#ebfafa" d="M 173.5,111.5 C 173.5,111.833 173.5,112.167 173.5,112.5C 172.5,112.5 171.5,112.5 170.5,112.5C 170.286,114.144 170.62,115.644 171.5,117C 170.01,118.772 168.343,118.939 166.5,117.5C 165.676,120.663 163.676,122.33 160.5,122.5C 160.167,126.5 159.833,126.5 159.5,122.5C 157.833,122.5 156.167,122.5 154.5,122.5C 154.737,123.791 154.404,124.791 153.5,125.5C 153.5,124.5 153.5,123.5 153.5,122.5C 153.5,122.167 153.5,121.833 153.5,121.5C 156.518,121.665 159.518,121.498 162.5,121C 163.861,119.416 164.528,117.582 164.5,115.5C 166.39,115.703 167.89,115.037 169,113.5C 169.251,109.2 170.751,108.533 173.5,111.5 Z"/></g>
<g><path style="opacity:1" fill="#97e1dc" d="M 147.5,121.5 C 149.657,122.053 149.49,123.053 147,124.5C 146.617,123.944 146.117,123.611 145.5,123.5C 145.833,122.5 146.5,121.833 147.5,121.5 Z"/></g>
<g><path style="opacity:1" fill="#9cd5d6" d="M 153.5,122.5 C 153.5,123.5 153.5,124.5 153.5,125.5C 152.341,127.25 150.674,128.25 148.5,128.5C 149.443,125.891 151.11,123.891 153.5,122.5 Z"/></g>
<g><path style="opacity:1" fill="#d1f7f9" d="M 142.5,127.5 C 143.239,127.369 143.906,127.536 144.5,128C 143.299,128.903 142.465,130.069 142,131.5C 141.667,130.5 141.333,129.5 141,128.5C 140.349,130.235 140.515,131.902 141.5,133.5C 141.006,135.026 140.339,136.359 139.5,137.5C 139.5,134.167 139.5,130.833 139.5,127.5C 140.5,127.5 141.5,127.5 142.5,127.5 Z"/></g>
<g><path style="opacity:1" fill="#6bbfbe" d="M 153.5,121.5 C 153.5,121.833 153.5,122.167 153.5,122.5C 151.11,123.891 149.443,125.891 148.5,128.5C 148.082,131.439 146.582,133.772 144,135.5C 143.167,138 142.333,140.5 141.5,143C 142.66,144.997 142.66,146.831 141.5,148.5C 141.649,147.448 141.483,146.448 141,145.5C 140.29,146.973 139.124,147.64 137.5,147.5C 137.737,146.209 137.404,145.209 136.5,144.5C 136.833,143.833 137.167,143.167 137.5,142.5C 138.931,141.22 139.598,139.553 139.5,137.5C 140.339,136.359 141.006,135.026 141.5,133.5C 140.515,131.902 140.349,130.235 141,128.5C 141.333,129.5 141.667,130.5 142,131.5C 142.465,130.069 143.299,128.903 144.5,128C 143.906,127.536 143.239,127.369 142.5,127.5C 143.209,126.596 144.209,126.263 145.5,126.5C 145.5,125.5 145.5,124.5 145.5,123.5C 146.117,123.611 146.617,123.944 147,124.5C 149.49,123.053 149.657,122.053 147.5,121.5C 148.5,120.833 149.5,120.167 150.5,119.5C 152.598,118.086 153.598,118.752 153.5,121.5 Z"/></g>
<g><path style="opacity:1" fill="#a0d4d4" d="M 80.5,138.5 C 80.8333,138.5 81.1667,138.5 81.5,138.5C 82.1667,138.833 82.8333,139.167 83.5,139.5C 83.5,139.833 83.5,140.167 83.5,140.5C 83.6495,141.552 83.4828,142.552 83,143.5C 80.5808,140.362 77.7475,139.862 74.5,142C 73.8366,143.518 72.8366,144.685 71.5,145.5C 71.1043,142.956 71.771,140.789 73.5,139C 75.9852,139.081 78.3185,138.914 80.5,138.5 Z"/></g>
<g><path style="opacity:1" fill="#67c2c0" d="M 83.5,140.5 C 84.7349,142.017 84.7349,143.684 83.5,145.5C 84.7572,150.796 88.0906,153.129 93.5,152.5C 93.8333,153.167 94.1667,153.833 94.5,154.5C 94.5654,154.938 94.3988,155.272 94,155.5C 93.1627,153.993 91.9961,153.493 90.5,154C 92.4019,155.73 94.0686,157.563 95.5,159.5C 95.4701,160.497 95.9701,161.164 97,161.5C 98.0769,160.571 99.2436,159.904 100.5,159.5C 101.671,158.655 103.005,157.989 104.5,157.5C 104.369,158.239 104.536,158.906 105,159.5C 107.586,159.298 110.086,158.964 112.5,158.5C 113.931,157.22 114.598,155.553 114.5,153.5C 116.104,152.713 116.771,151.38 116.5,149.5C 117.5,149.5 118.5,149.5 119.5,149.5C 120.167,149.5 120.5,149.833 120.5,150.5C 119.761,150.369 119.094,150.536 118.5,151C 118.752,153.468 119.086,155.968 119.5,158.5C 119.043,159.298 118.376,159.631 117.5,159.5C 117.565,159.062 117.399,158.728 117,158.5C 115.961,159.244 115.461,160.244 115.5,161.5C 114.288,162.23 113.288,163.23 112.5,164.5C 109.227,163.415 105.894,163.248 102.5,164C 101.402,164.77 101.402,165.603 102.5,166.5C 100.801,166.527 99.4674,167.194 98.5,168.5C 97.2617,168.19 97.2617,167.69 98.5,167C 96.6711,166.727 95.1711,165.893 94,164.5C 93.5357,165.094 93.369,165.761 93.5,166.5C 92.5386,164.735 92.2053,162.735 92.5,160.5C 90.1667,159.833 87.8333,159.167 85.5,158.5C 85.6107,157.883 85.944,157.383 86.5,157C 84.8953,155.315 83.562,153.482 82.5,151.5C 82.3404,149.847 81.6737,148.514 80.5,147.5C 79.2548,145.72 77.7548,145.387 76,146.5C 74.124,147.619 73.2907,149.286 73.5,151.5C 71.9891,152.502 70.3224,153.169 68.5,153.5C 67.8501,153.804 67.1835,154.137 66.5,154.5C 65.8954,151.575 64.8954,151.909 63.5,155.5C 61.8958,154.713 61.2291,153.38 61.5,151.5C 64.6305,152.092 66.9639,151.092 68.5,148.5C 70.5,148.5 71.5,147.5 71.5,145.5C 72.8366,144.685 73.8366,143.518 74.5,142C 77.7475,139.862 80.5808,140.362 83,143.5C 83.4828,142.552 83.6495,141.552 83.5,140.5 Z"/></g>
<g><path style="opacity:1" fill="#a7dce1" d="M 243.5,143.5 C 243.977,146.241 242.977,148.574 240.5,150.5C 239.908,147.369 240.908,145.036 243.5,143.5 Z"/></g>
<g><path style="opacity:1" fill="#e9fcfc" d="M 80.5,136.5 C 80.5,137.167 80.5,137.833 80.5,138.5C 78.3185,138.914 75.9852,139.081 73.5,139C 71.771,140.789 71.1043,142.956 71.5,145.5C 71.5,147.5 70.5,148.5 68.5,148.5C 66.5976,147.489 64.5976,147.322 62.5,148C 61.33,149.755 59.6633,150.755 57.5,151C 55.771,152.789 55.1043,154.956 55.5,157.5C 54.791,158.404 53.791,158.737 52.5,158.5C 51.5,158.833 50.8333,159.5 50.5,160.5C 50.7947,162.735 50.4614,164.735 49.5,166.5C 47.9731,166.427 46.9731,167.094 46.5,168.5C 45.596,169.209 45.2627,170.209 45.5,171.5C 44.5,171.5 43.5,171.5 42.5,171.5C 43.314,167.602 45.6473,165.269 49.5,164.5C 49.5,164.167 49.5,163.833 49.5,163.5C 48.9582,159.741 50.2916,157.074 53.5,155.5C 54.4731,153.052 54.8064,150.385 54.5,147.5C 55.2679,148.263 55.7679,149.263 56,150.5C 60.1548,146.973 64.9881,145.639 70.5,146.5C 70.0632,143.193 70.7298,140.193 72.5,137.5C 75.2993,136.719 77.966,136.386 80.5,136.5 Z"/></g>
<g><path style="opacity:1" fill="#e3fcfd" d="M 83.5,140.5 C 83.5,140.167 83.5,139.833 83.5,139.5C 84.9221,139.75 85.9221,140.583 86.5,142C 85.4018,144.498 85.5684,146.998 87,149.5C 89.5332,149.95 91.6998,150.95 93.5,152.5C 88.0906,153.129 84.7572,150.796 83.5,145.5C 84.7349,143.684 84.7349,142.017 83.5,140.5 Z"/></g>
<g><path style="opacity:1" fill="#fdfdfd" d="M 80.5,148.5 C 80.5,153.5 80.5,158.5 80.5,163.5C 73.5,163.5 66.5,163.5 59.5,163.5C 61.1852,160.859 63.3519,158.526 66,156.5C 66.9503,157.022 67.7836,157.689 68.5,158.5C 70.4086,157.652 72.4086,157.318 74.5,157.5C 74.3359,154.813 74.5026,152.146 75,149.5C 76.5557,147.365 78.3891,147.032 80.5,148.5 Z"/></g>
<g><path style="opacity:1" fill="#8dd6d4" d="M 136.5,144.5 C 137.404,145.209 137.737,146.209 137.5,147.5C 139.124,147.64 140.29,146.973 141,145.5C 141.483,146.448 141.649,147.448 141.5,148.5C 141.167,149.5 140.5,150.167 139.5,150.5C 138.828,149.733 137.995,149.066 137,148.5C 136.802,150.382 136.302,152.048 135.5,153.5C 135.19,150.287 135.523,147.287 136.5,144.5 Z"/></g>
<g><path style="opacity:1" fill="#e1fbfb" d="M 228.5,119.5 C 230.517,139.315 231.684,159.315 232,179.5C 231.617,180.056 231.117,180.389 230.5,180.5C 230.5,175.167 230.5,169.833 230.5,164.5C 230.5,164.167 230.5,163.833 230.5,163.5C 230.769,161.571 230.269,159.905 229,158.5C 228.5,145.504 228.333,132.504 228.5,119.5 Z"/></g>
<g><path style="opacity:1" fill="#dff5f4" d="M 134.5,142.5 C 135.5,142.5 136.5,142.5 137.5,142.5C 137.167,143.167 136.833,143.833 136.5,144.5C 135.523,147.287 135.19,150.287 135.5,153.5C 134.87,157.048 133.87,160.381 132.5,163.5C 132.338,159.287 133.005,155.287 134.5,151.5C 134.328,149.452 133.995,147.452 133.5,145.5C 134.404,144.791 134.737,143.791 134.5,142.5 Z"/></g>
<g><path style="opacity:1" fill="#86cccd" d="M 68.5,148.5 C 66.9639,151.092 64.6305,152.092 61.5,151.5C 61.2291,153.38 61.8958,154.713 63.5,155.5C 62.5994,157.727 60.9328,158.727 58.5,158.5C 58.5,160.167 58.5,161.833 58.5,163.5C 58.5,163.833 58.5,164.167 58.5,164.5C 56.8333,165.167 55.1667,165.833 53.5,166.5C 54.1642,164.513 55.3308,162.846 57,161.5C 57.6667,159.833 57.6667,158.167 57,156.5C 56.6174,157.056 56.1174,157.389 55.5,157.5C 55.1043,154.956 55.771,152.789 57.5,151C 59.6633,150.755 61.33,149.755 62.5,148C 64.5976,147.322 66.5976,147.489 68.5,148.5 Z"/></g>
<g><path style="opacity:1" fill="#acf0f0" d="M 73.5,151.5 C 73.5,151.833 73.5,152.167 73.5,152.5C 72.0236,154.432 70.3569,154.765 68.5,153.5C 70.3224,153.169 71.9891,152.502 73.5,151.5 Z"/></g>
<g><path style="opacity:1" fill="#9ed4d3" d="M 68.5,153.5 C 70.3569,154.765 72.0236,154.432 73.5,152.5C 73.5417,154.849 72.3751,156.182 70,156.5C 67.9011,155.713 65.7345,155.38 63.5,155.5C 64.8954,151.909 65.8954,151.575 66.5,154.5C 67.1835,154.137 67.8501,153.804 68.5,153.5 Z"/></g>
<g><path style="opacity:1" fill="#ccf7f7" d="M 233.5,141.5 C 234.479,144.625 234.813,147.958 234.5,151.5C 235.5,151.5 236.5,151.5 237.5,151.5C 235.233,154.2 234.9,157.2 236.5,160.5C 236.5,161.167 236.5,161.833 236.5,162.5C 235.833,162.5 235.167,162.5 234.5,162.5C 234.106,155.504 233.773,148.504 233.5,141.5 Z"/></g>
<g><path style="opacity:1" fill="#edfcfd" d="M 80.5,147.5 C 80.5,147.833 80.5,148.167 80.5,148.5C 78.3891,147.032 76.5557,147.365 75,149.5C 74.5026,152.146 74.3359,154.813 74.5,157.5C 72.4086,157.318 70.4086,157.652 68.5,158.5C 67.7836,157.689 66.9503,157.022 66,156.5C 63.3519,158.526 61.1852,160.859 59.5,163.5C 59.1667,163.5 58.8333,163.5 58.5,163.5C 58.5,161.833 58.5,160.167 58.5,158.5C 60.9328,158.727 62.5994,157.727 63.5,155.5C 65.7345,155.38 67.9011,155.713 70,156.5C 72.3751,156.182 73.5417,154.849 73.5,152.5C 73.5,152.167 73.5,151.833 73.5,151.5C 73.2907,149.286 74.124,147.619 76,146.5C 77.7548,145.387 79.2548,145.72 80.5,147.5 Z"/></g>
<g><path style="opacity:1" fill="#93d7d4" d="M 237.5,151.5 C 237.833,151.5 238.167,151.5 238.5,151.5C 238.611,152.117 238.944,152.617 239.5,153C 238.418,154.33 237.751,155.83 237.5,157.5C 237.737,158.791 237.404,159.791 236.5,160.5C 234.9,157.2 235.233,154.2 237.5,151.5 Z"/></g>
<g><path style="opacity:1" fill="#e9fbfb" d="M 246.5,175.5 C 245.514,173.156 244.181,170.989 242.5,169C 242.594,166.046 243.094,165.879 244,168.5C 244.494,166.866 244.66,165.199 244.5,163.5C 243.167,163.5 241.833,163.5 240.5,163.5C 240.813,167.042 240.479,170.375 239.5,173.5C 239.672,172.508 239.338,171.842 238.5,171.5C 238.925,167.092 239.592,162.758 240.5,158.5C 242.776,158.244 243.943,156.91 244,154.5C 245.231,160.488 246.398,166.488 247.5,172.5C 247.48,173.726 247.147,174.726 246.5,175.5 Z"/></g>
<g><path style="opacity:1" fill="#b0e4ea" d="M 52.5,158.5 C 53.5847,162.098 52.9181,162.765 50.5,160.5C 50.8333,159.5 51.5,158.833 52.5,158.5 Z"/></g>
<g><path style="opacity:1" fill="#fcfefe" d="M -0.5,-0.5 C -0.166667,-0.5 0.166667,-0.5 0.5,-0.5C 0.136851,70.5072 0.470184,125.507 1.5,164.5C 10.1667,164.5 18.8333,164.5 27.5,164.5C 27.5,169.167 27.5,173.833 27.5,178.5C 25.3888,177.258 23.3888,177.258 21.5,178.5C 19.5856,179.185 17.5856,179.685 15.5,180C 14.6195,180.708 13.9528,181.542 13.5,182.5C 13.5,183.167 13.1667,183.5 12.5,183.5C 9.8127,183.336 7.14603,183.503 4.5,184C 2.96317,185.11 2.2965,186.61 2.5,188.5C 1.79105,189.404 0.791047,189.737 -0.5,189.5C -0.5,126.167 -0.5,62.8333 -0.5,-0.5 Z"/></g>
<g><path style="opacity:1" fill="#fcfdfd" d="M 49.5,164.5 C 45.6473,165.269 43.314,167.602 42.5,171.5C 42.1667,171.5 41.8333,171.5 41.5,171.5C 40.5,171.5 39.5,171.5 38.5,171.5C 38.6841,174.321 37.3507,175.988 34.5,176.5C 33.513,179.768 33.1796,183.102 33.5,186.5C 33.5,187.167 33.5,187.833 33.5,188.5C 32.1667,188.5 30.8333,188.5 29.5,188.5C 28.2201,188.637 27.8868,186.303 28.5,181.5C 28.5,175.833 28.5,170.167 28.5,164.5C 35.5,164.5 42.5,164.5 49.5,164.5 Z"/></g>
<g><path style="opacity:1" fill="#fefefe" d="M 184.5,105.5 C 185.497,124.659 185.83,143.993 185.5,163.5C 177.167,163.5 168.833,163.5 160.5,163.5C 160.167,114.167 159.833,114.167 159.5,163.5C 130.167,163.833 130.167,164.167 159.5,164.5C 159.5,193.833 159.5,223.167 159.5,252.5C 151.167,252.5 142.833,252.5 134.5,252.5C 134.5,232.167 134.5,211.833 134.5,191.5C 133.965,184.509 134.965,177.842 137.5,171.5C 136.097,164.317 136.764,157.317 139.5,150.5C 140.5,150.167 141.167,149.5 141.5,148.5C 142.66,146.831 142.66,144.997 141.5,143C 142.333,140.5 143.167,138 144,135.5C 146.582,133.772 148.082,131.439 148.5,128.5C 150.674,128.25 152.341,127.25 153.5,125.5C 154.404,124.791 154.737,123.791 154.5,122.5C 156.167,122.5 157.833,122.5 159.5,122.5C 159.833,126.5 160.167,126.5 160.5,122.5C 163.676,122.33 165.676,120.663 166.5,117.5C 168.343,118.939 170.01,118.772 171.5,117C 170.62,115.644 170.286,114.144 170.5,112.5C 171.5,112.5 172.5,112.5 173.5,112.5C 175.586,114.023 177.252,113.69 178.5,111.5C 179.022,109.781 180.022,108.448 181.5,107.5C 183.027,107.573 184.027,106.906 184.5,105.5 Z"/></g>
<g><path style="opacity:1" fill="#e5e6e6" d="M 230.5,163.5 C 230.5,163.833 230.5,164.167 230.5,164.5C 224.833,164.5 219.167,164.5 213.5,164.5C 213.5,193.833 213.5,223.167 213.5,252.5C 221.833,252.5 230.167,252.5 238.5,252.5C 238.5,231.167 238.5,209.833 238.5,188.5C 238.768,186.901 238.434,185.568 237.5,184.5C 237.5,183.5 237.5,182.5 237.5,181.5C 238.479,178.375 238.813,175.042 238.5,171.5C 239.338,171.842 239.672,172.508 239.5,173.5C 239.5,199.833 239.5,226.167 239.5,252.5C 246.5,252.5 253.5,252.5 260.5,252.5C 260.5,252.833 260.5,253.167 260.5,253.5C 173.5,253.5 86.5,253.5 -0.5,253.5C -0.5,235.167 -0.5,216.833 -0.5,198.5C 0.166667,198.167 0.833333,197.833 1.5,197.5C 1.5,215.833 1.5,234.167 1.5,252.5C 10.1667,252.5 18.8333,252.5 27.5,252.5C 27.7047,244.133 27.3713,235.8 26.5,227.5C 27.1667,227.833 27.8333,228.167 28.5,228.5C 28.5,236.5 28.5,244.5 28.5,252.5C 36.8333,252.5 45.1667,252.5 53.5,252.5C 53.8333,140.5 54.1667,140.5 54.5,252.5C 63.1667,252.5 71.8333,252.5 80.5,252.5C 80.5,223.167 80.5,193.833 80.5,164.5C 73.1667,164.5 65.8333,164.5 58.5,164.5C 58.5,164.167 58.5,163.833 58.5,163.5C 58.8333,163.5 59.1667,163.5 59.5,163.5C 66.5,163.5 73.5,163.5 80.5,163.5C 80.5,158.5 80.5,153.5 80.5,148.5C 80.5,148.167 80.5,147.833 80.5,147.5C 81.6737,148.514 82.3404,149.847 82.5,151.5C 82.5,153.167 82.5,154.833 82.5,156.5C 81.5318,158.607 81.1984,160.941 81.5,163.5C 85.2957,163.162 88.2957,163.495 90.5,164.5C 87.5,164.5 84.5,164.5 81.5,164.5C 81.5,193.833 81.5,223.167 81.5,252.5C 89.8333,252.5 98.1667,252.5 106.5,252.5C 107.159,223.147 106.492,194.147 104.5,165.5C 105.209,164.596 106.209,164.263 107.5,164.5C 107.5,166.167 107.5,167.833 107.5,169.5C 107.5,197.167 107.5,224.833 107.5,252.5C 116.167,252.5 124.833,252.5 133.5,252.5C 133.5,236.5 133.5,220.5 133.5,204.5C 133.131,201.681 132.798,198.848 132.5,196C 132.569,194.014 133.235,192.514 134.5,191.5C 134.5,211.833 134.5,232.167 134.5,252.5C 142.833,252.5 151.167,252.5 159.5,252.5C 159.5,223.167 159.5,193.833 159.5,164.5C 130.167,164.167 130.167,163.833 159.5,163.5C 159.833,114.167 160.167,114.167 160.5,163.5C 168.833,163.5 177.167,163.5 185.5,163.5C 185.83,143.993 185.497,124.659 184.5,105.5C 184.833,104.5 185.5,103.833 186.5,103.5C 186.5,123.5 186.5,143.5 186.5,163.5C 195.167,163.5 203.833,163.5 212.5,163.5C 212.833,52.8333 213.167,52.8333 213.5,163.5C 219.167,163.5 224.833,163.5 230.5,163.5 Z"/></g>
<g><path style="opacity:1" fill="#fefefe" d="M 186.5,164.5 C 195.167,164.5 203.833,164.5 212.5,164.5C 212.5,193.833 212.5,223.167 212.5,252.5C 203.833,252.5 195.167,252.5 186.5,252.5C 186.5,223.167 186.5,193.833 186.5,164.5 Z"/></g>
<g><path style="opacity:1" fill="#fefefe" d="M 160.5,164.5 C 168.833,164.5 177.167,164.5 185.5,164.5C 185.5,193.833 185.5,223.167 185.5,252.5C 177.167,252.5 168.833,252.5 160.5,252.5C 160.5,223.167 160.5,193.833 160.5,164.5 Z"/></g>
<g><path style="opacity:1" fill="#6dbfc1" d="M 120.5,150.5 C 121.434,151.568 121.768,152.901 121.5,154.5C 121.166,161.417 121.999,168.417 124,175.5C 126.508,177.545 127.008,179.878 125.5,182.5C 124.001,181.506 122.334,181.506 120.5,182.5C 120.167,182.5 119.833,182.5 119.5,182.5C 119.5,182.167 119.5,181.833 119.5,181.5C 120.922,176.04 120.588,170.707 118.5,165.5C 118.483,163.435 118.15,161.435 117.5,159.5C 118.376,159.631 119.043,159.298 119.5,158.5C 119.086,155.968 118.752,153.468 118.5,151C 119.094,150.536 119.761,150.369 120.5,150.5 Z"/></g>
<g><path style="opacity:1" fill="#c9f5f4" d="M 117.5,159.5 C 118.15,161.435 118.483,163.435 118.5,165.5C 117.5,165.5 116.5,165.5 115.5,165.5C 116.686,164.039 116.686,162.705 115.5,161.5C 115.461,160.244 115.961,159.244 117,158.5C 117.399,158.728 117.565,159.062 117.5,159.5 Z"/></g>
<g><path style="opacity:1" fill="#fefefe" d="M 90.5,164.5 C 91.4404,167.714 92.9404,170.714 95,173.5C 97.1413,170.679 99.9746,169.346 103.5,169.5C 103.5,168.5 103.5,167.5 103.5,166.5C 103.5,165.833 103.833,165.5 104.5,165.5C 106.492,194.147 107.159,223.147 106.5,252.5C 98.1667,252.5 89.8333,252.5 81.5,252.5C 81.5,223.167 81.5,193.833 81.5,164.5C 84.5,164.5 87.5,164.5 90.5,164.5 Z"/></g>
<g><path style="opacity:1" fill="#b3f6f6" d="M 100.5,159.5 C 102.975,159.747 102.975,160.413 100.5,161.5C 99.537,161.03 99.537,160.363 100.5,159.5 Z"/></g>
<g><path style="opacity:1" fill="#96d9da" d="M 106.5,155.5 C 106.833,155.5 107.167,155.5 107.5,155.5C 109.332,156.248 110.999,157.248 112.5,158.5C 110.086,158.964 107.586,159.298 105,159.5C 104.536,158.906 104.369,158.239 104.5,157.5C 104.833,156.5 105.5,155.833 106.5,155.5 Z"/></g>
<g><path style="opacity:1" fill="#aae9e6" d="M 94.5,154.5 C 95.4511,155.919 95.7845,157.585 95.5,159.5C 94.0686,157.563 92.4019,155.73 90.5,154C 91.9961,153.493 93.1627,153.993 94,155.5C 94.3988,155.272 94.5654,154.938 94.5,154.5 Z"/></g>
<g><path style="opacity:1" fill="#97ced2" d="M 82.5,151.5 C 83.562,153.482 84.8953,155.315 86.5,157C 85.944,157.383 85.6107,157.883 85.5,158.5C 83.9731,158.573 82.9731,157.906 82.5,156.5C 82.5,154.833 82.5,153.167 82.5,151.5 Z"/></g>
<g><path style="opacity:1" fill="#97d0cc" d="M 119.5,149.5 C 118.5,149.5 117.5,149.5 116.5,149.5C 116.771,151.38 116.104,152.713 114.5,153.5C 113.903,153.265 113.57,152.765 113.5,152C 114.668,148.722 116.668,147.889 119.5,149.5 Z"/></g>
<g><path style="opacity:1" fill="#fefefe" d="M 230.5,164.5 C 230.5,169.833 230.5,175.167 230.5,180.5C 229.12,180.962 228.453,181.962 228.5,183.5C 229.909,187.722 231.076,192.056 232,196.5C 233.587,197.727 234.921,197.394 236,195.5C 236.333,192.833 236.667,190.167 237,187.5C 237.383,188.056 237.883,188.389 238.5,188.5C 238.5,209.833 238.5,231.167 238.5,252.5C 230.167,252.5 221.833,252.5 213.5,252.5C 213.5,223.167 213.5,193.833 213.5,164.5C 219.167,164.5 224.833,164.5 230.5,164.5 Z"/></g>
<g><path style="opacity:1" fill="#9beeec" d="M 234.5,162.5 C 235.167,162.5 235.833,162.5 236.5,162.5C 235.377,168.966 234.71,168.966 234.5,162.5 Z"/></g>
<g><path style="opacity:1" fill="#fefefe" d="M 246.5,175.5 C 246.054,178.01 246.72,180.01 248.5,181.5C 251.235,182.821 252.902,181.821 253.5,178.5C 253.842,177.662 254.508,177.328 255.5,177.5C 258.987,176.555 260.32,174.222 259.5,170.5C 259.5,169.833 259.833,169.5 260.5,169.5C 260.5,197.167 260.5,224.833 260.5,252.5C 253.5,252.5 246.5,252.5 239.5,252.5C 239.5,226.167 239.5,199.833 239.5,173.5C 240.479,170.375 240.813,167.042 240.5,163.5C 241.833,163.5 243.167,163.5 244.5,163.5C 244.66,165.199 244.494,166.866 244,168.5C 243.094,165.879 242.594,166.046 242.5,169C 244.181,170.989 245.514,173.156 246.5,175.5 Z"/></g>
<g><path style="opacity:1" fill="#edfbfa" d="M 248.5,149.5 C 249.712,153.552 250.379,158.219 250.5,163.5C 252.5,163.5 254.5,163.5 256.5,163.5C 256.5,165.167 256.5,166.833 256.5,168.5C 254.924,169.143 253.59,170.143 252.5,171.5C 251.833,171.5 251.167,171.5 250.5,171.5C 249.717,165.47 248.717,159.47 247.5,153.5C 247.511,151.955 247.844,150.622 248.5,149.5 Z"/></g>
<g><path style="opacity:1" fill="#9fc7cd" d="M 258.5,162.5 C 258.938,162.435 259.272,162.601 259.5,163C 258.177,163.816 257.511,164.983 257.5,166.5C 257.672,167.492 257.338,168.158 256.5,168.5C 256.5,166.833 256.5,165.167 256.5,163.5C 257.167,163.167 257.833,162.833 258.5,162.5 Z"/></g>
<g><path style="opacity:1" fill="#a5e9e8" d="M 258.5,162.5 C 258.842,161.662 259.508,161.328 260.5,161.5C 260.5,162.5 260.5,163.5 260.5,164.5C 259.5,165.167 258.5,165.833 257.5,166.5C 257.511,164.983 258.177,163.816 259.5,163C 259.272,162.601 258.938,162.435 258.5,162.5 Z"/></g>
<g><path style="opacity:1" fill="#a0d1d1" d="M 115.5,161.5 C 116.686,162.705 116.686,164.039 115.5,165.5C 112.741,167.85 110.075,167.517 107.5,164.5C 106.209,164.263 105.209,164.596 104.5,165.5C 103.833,165.5 103.5,165.833 103.5,166.5C 103.167,166.5 102.833,166.5 102.5,166.5C 101.402,165.603 101.402,164.77 102.5,164C 105.894,163.248 109.227,163.415 112.5,164.5C 113.288,163.23 114.288,162.23 115.5,161.5 Z"/></g>
<g><path style="opacity:1" fill="#9bd7da" d="M 49.5,166.5 C 48.928,167.973 48.0946,169.307 47,170.5C 46.5357,169.906 46.369,169.239 46.5,168.5C 46.9731,167.094 47.9731,166.427 49.5,166.5 Z"/></g>
<g><path style="opacity:1" fill="#a8dadc" d="M 98.5,168.5 C 96.1758,169.833 94.5092,169.166 93.5,166.5C 93.369,165.761 93.5357,165.094 94,164.5C 95.1711,165.893 96.6711,166.727 98.5,167C 97.2617,167.69 97.2617,168.19 98.5,168.5 Z"/></g>
<g><path style="opacity:1" fill="#fefefe" d="M 119.5,181.5 C 119.5,181.833 119.5,182.167 119.5,182.5C 120.345,185.696 121.345,188.863 122.5,192C 122.343,194.637 121.677,197.137 120.5,199.5C 121.66,201.711 122.993,203.711 124.5,205.5C 126.343,206.246 127.676,207.579 128.5,209.5C 129.134,207.228 130.468,205.561 132.5,204.5C 132.833,204.5 133.167,204.5 133.5,204.5C 133.5,220.5 133.5,236.5 133.5,252.5C 124.833,252.5 116.167,252.5 107.5,252.5C 107.5,224.833 107.5,197.167 107.5,169.5C 110.769,168.455 114.102,167.955 117.5,168C 118.142,172.601 118.809,177.101 119.5,181.5 Z"/></g>
<g><path style="opacity:1" fill="#a3d6d6" d="M 132.5,166.5 C 132.451,170.078 131.785,173.411 130.5,176.5C 130.123,173.475 129.956,170.475 130,167.5C 130.671,166.748 131.504,166.414 132.5,166.5 Z"/></g>
<g><path style="opacity:1" fill="#f1fdfd" d="M 82.5,156.5 C 82.9731,157.906 83.9731,158.573 85.5,158.5C 87.8333,159.167 90.1667,159.833 92.5,160.5C 92.2053,162.735 92.5386,164.735 93.5,166.5C 94.5092,169.166 96.1758,169.833 98.5,168.5C 99.4674,167.194 100.801,166.527 102.5,166.5C 102.833,166.5 103.167,166.5 103.5,166.5C 103.5,167.5 103.5,168.5 103.5,169.5C 99.9746,169.346 97.1413,170.679 95,173.5C 92.9404,170.714 91.4404,167.714 90.5,164.5C 88.2957,163.495 85.2957,163.162 81.5,163.5C 81.1984,160.941 81.5318,158.607 82.5,156.5 Z"/></g>
<g><path style="opacity:1" fill="#edfcfc" d="M 121.5,154.5 C 121.963,157.482 122.296,160.482 122.5,163.5C 125.833,163.5 129.167,163.5 132.5,163.5C 132.5,164.5 132.5,165.5 132.5,166.5C 131.504,166.414 130.671,166.748 130,167.5C 129.956,170.475 130.123,173.475 130.5,176.5C 129.831,181.847 128.998,187.18 128,192.5C 126.85,189.232 126.016,185.899 125.5,182.5C 127.008,179.878 126.508,177.545 124,175.5C 121.999,168.417 121.166,161.417 121.5,154.5 Z"/></g>
<g><path style="opacity:1" fill="#e0f9f9" d="M 107.5,164.5 C 110.075,167.517 112.741,167.85 115.5,165.5C 116.5,165.5 117.5,165.5 118.5,165.5C 120.588,170.707 120.922,176.04 119.5,181.5C 118.809,177.101 118.142,172.601 117.5,168C 114.102,167.955 110.769,168.455 107.5,169.5C 107.5,167.833 107.5,166.167 107.5,164.5 Z"/></g>
<g><path style="opacity:1" fill="#a4dad8" d="M 259.5,170.5 C 260.32,174.222 258.987,176.555 255.5,177.5C 256.079,174.669 257.412,172.336 259.5,170.5 Z"/></g>
<g><path style="opacity:1" fill="#fefefe" d="M 58.5,164.5 C 65.8333,164.5 73.1667,164.5 80.5,164.5C 80.5,193.833 80.5,223.167 80.5,252.5C 71.8333,252.5 63.1667,252.5 54.5,252.5C 54.1667,140.5 53.8333,140.5 53.5,252.5C 45.1667,252.5 36.8333,252.5 28.5,252.5C 28.5,244.5 28.5,236.5 28.5,228.5C 28.5,227.833 28.5,227.167 28.5,226.5C 30.9754,225.313 31.9754,223.313 31.5,220.5C 32.1995,216.202 32.5328,211.869 32.5,207.5C 34.22,205.342 35.0533,202.675 35,199.5C 36.7165,198.448 37.7165,199.114 38,201.5C 37.9741,195.264 38.8075,189.264 40.5,183.5C 42.1042,182.713 42.7709,181.38 42.5,179.5C 44.9328,179.727 46.5994,178.727 47.5,176.5C 48.4737,174.915 49.9737,173.915 52,173.5C 52.2904,171.08 52.7904,168.746 53.5,166.5C 55.1667,165.833 56.8333,165.167 58.5,164.5 Z"/></g>
<g><path style="opacity:1" fill="#6ac1c1" d="M 243.5,143.5 C 245.514,143.392 247.18,144.058 248.5,145.5C 248.5,146.833 248.5,148.167 248.5,149.5C 247.844,150.622 247.511,151.955 247.5,153.5C 248.717,159.47 249.717,165.47 250.5,171.5C 250.413,174.598 250.913,174.932 252,172.5C 252.914,173.654 253.747,173.487 254.5,172C 253.906,171.536 253.239,171.369 252.5,171.5C 253.59,170.143 254.924,169.143 256.5,168.5C 257.338,168.158 257.672,167.492 257.5,166.5C 258.5,165.833 259.5,165.167 260.5,164.5C 260.5,166.167 260.5,167.833 260.5,169.5C 259.833,169.5 259.5,169.833 259.5,170.5C 257.412,172.336 256.079,174.669 255.5,177.5C 254.508,177.328 253.842,177.662 253.5,178.5C 251.589,179.075 249.922,180.075 248.5,181.5C 246.72,180.01 246.054,178.01 246.5,175.5C 247.147,174.726 247.48,173.726 247.5,172.5C 246.398,166.488 245.231,160.488 244,154.5C 243.943,156.91 242.776,158.244 240.5,158.5C 239.391,158.443 238.391,158.11 237.5,157.5C 237.751,155.83 238.418,154.33 239.5,153C 238.944,152.617 238.611,152.117 238.5,151.5C 239.492,151.672 240.158,151.338 240.5,150.5C 242.977,148.574 243.977,146.241 243.5,143.5 Z"/></g>
<g><path style="opacity:1" fill="#a3eded" d="M 250.5,171.5 C 251.167,171.5 251.833,171.5 252.5,171.5C 253.239,171.369 253.906,171.536 254.5,172C 253.747,173.487 252.914,173.654 252,172.5C 250.913,174.932 250.413,174.598 250.5,171.5 Z"/></g>
<g><path style="opacity:1" fill="#e6fbfa" d="M 41.5,171.5 C 40.0582,172.82 39.3915,174.486 39.5,176.5C 38.209,176.263 37.209,176.596 36.5,177.5C 34.4031,178.879 34.0698,180.545 35.5,182.5C 35.3404,184.153 34.6737,185.486 33.5,186.5C 33.1796,183.102 33.513,179.768 34.5,176.5C 37.3507,175.988 38.6841,174.321 38.5,171.5C 39.5,171.5 40.5,171.5 41.5,171.5 Z"/></g>
<g><path style="opacity:1" fill="#ddfbfa" d="M 238.5,171.5 C 238.813,175.042 238.479,178.375 237.5,181.5C 236.276,177.97 236.61,174.637 238.5,171.5 Z"/></g>
<g><path style="opacity:1" fill="#9ed7d4" d="M 47.5,176.5 C 46.5994,178.727 44.9328,179.727 42.5,179.5C 42.7709,181.38 42.1042,182.713 40.5,183.5C 39.6971,182.577 39.5304,181.577 40,180.5C 42,178.833 44,177.167 46,175.5C 46.3826,176.056 46.8826,176.389 47.5,176.5 Z"/></g>
<g><path style="opacity:1" fill="#a3cecf" d="M 253.5,178.5 C 252.902,181.821 251.235,182.821 248.5,181.5C 249.922,180.075 251.589,179.075 253.5,178.5 Z"/></g>
<g><path style="opacity:1" fill="#a1d5d4" d="M 36.5,177.5 C 37.2389,177.369 37.9056,177.536 38.5,178C 37.1175,179.271 36.1175,180.771 35.5,182.5C 34.0698,180.545 34.4031,178.879 36.5,177.5 Z"/></g>
<g><path style="opacity:1" fill="#86cecc" d="M 21.5,178.5 C 25.33,178.627 26.6633,180.294 25.5,183.5C 24.735,182.34 23.735,181.34 22.5,180.5C 22.3084,181.959 21.6417,183.625 20.5,185.5C 20.5,186.167 20.1667,186.5 19.5,186.5C 16.4017,186.587 16.0684,186.087 18.5,185C 17.8742,184.25 17.3742,183.416 17,182.5C 15.8545,183.684 14.6879,183.684 13.5,182.5C 13.9528,181.542 14.6195,180.708 15.5,180C 17.5856,179.685 19.5856,179.185 21.5,178.5 Z"/></g>
<g><path style="opacity:1" fill="#69bfbe" d="M 53.5,166.5 C 52.7904,168.746 52.2904,171.08 52,173.5C 49.9737,173.915 48.4737,174.915 47.5,176.5C 46.8826,176.389 46.3826,176.056 46,175.5C 44,177.167 42,178.833 40,180.5C 39.5304,181.577 39.6971,182.577 40.5,183.5C 38.9778,184.191 37.9778,185.358 37.5,187C 35.8798,193.826 34.2132,200.659 32.5,207.5C 31.6768,210.684 31.0101,214.017 30.5,217.5C 29.525,220.311 28.8583,223.311 28.5,226.5C 28.5,227.167 28.5,227.833 28.5,228.5C 27.8333,228.167 27.1667,227.833 26.5,227.5C 26.6716,226.508 26.3382,225.842 25.5,225.5C 26.0036,218.368 25.3369,211.368 23.5,204.5C 23.5,203.167 23.5,201.833 23.5,200.5C 23.2249,195.223 22.2249,190.223 20.5,185.5C 21.6417,183.625 22.3084,181.959 22.5,180.5C 23.735,181.34 24.735,182.34 25.5,183.5C 25.0766,184.265 24.7432,185.098 24.5,186C 25.5871,190.776 26.2537,195.609 26.5,200.5C 26.6744,203.874 27.1744,207.207 28,210.5C 28.813,208.564 29.313,206.564 29.5,204.5C 30.2035,201.111 30.2035,197.778 29.5,194.5C 29.6667,193.833 29.8333,193.167 30,192.5C 30.3333,193.5 30.6667,194.5 31,195.5C 31.3095,194.234 31.8095,193.067 32.5,192C 31.8333,191.667 31.1667,191.333 30.5,191C 31.9423,190.623 32.9423,189.79 33.5,188.5C 33.5,187.833 33.5,187.167 33.5,186.5C 34.6737,185.486 35.3404,184.153 35.5,182.5C 36.1175,180.771 37.1175,179.271 38.5,178C 37.9056,177.536 37.2389,177.369 36.5,177.5C 37.209,176.596 38.209,176.263 39.5,176.5C 39.3915,174.486 40.0582,172.82 41.5,171.5C 41.8333,171.5 42.1667,171.5 42.5,171.5C 43.5,171.5 44.5,171.5 45.5,171.5C 45.2627,170.209 45.596,169.209 46.5,168.5C 46.369,169.239 46.5357,169.906 47,170.5C 48.0946,169.307 48.928,167.973 49.5,166.5C 50.4614,164.735 50.7947,162.735 50.5,160.5C 52.9181,162.765 53.5847,162.098 52.5,158.5C 53.791,158.737 54.791,158.404 55.5,157.5C 56.1174,157.389 56.6174,157.056 57,156.5C 57.6667,158.167 57.6667,159.833 57,161.5C 55.3308,162.846 54.1642,164.513 53.5,166.5 Z"/></g>
<g><path style="opacity:1" fill="#c1f5f8" d="M 50.5,170.5 C 51.6878,172.496 51.0211,173.329 48.5,173C 49.3805,172.292 50.0472,171.458 50.5,170.5 Z"/></g>
<g><path style="opacity:1" fill="#a0d8d7" d="M 12.5,183.5 C 11.9232,185.652 10.7565,185.985 9,184.5C 6.43931,185.234 4.27264,186.567 2.5,188.5C 2.2965,186.61 2.96317,185.11 4.5,184C 7.14603,183.503 9.8127,183.336 12.5,183.5 Z"/></g>
<g><path style="opacity:1" fill="#63bfbc" d="M 13.5,182.5 C 14.6879,183.684 15.8545,183.684 17,182.5C 17.3742,183.416 17.8742,184.25 18.5,185C 16.0684,186.087 16.4017,186.587 19.5,186.5C 18.1667,187.167 16.8333,187.833 15.5,188.5C 14.8485,187.909 14.1818,187.243 13.5,186.5C 10.0183,187.079 7.35168,188.745 5.5,191.5C 4.85013,191.804 4.18346,192.137 3.5,192.5C 2.37765,191.37 1.04432,190.703 -0.5,190.5C -0.5,190.167 -0.5,189.833 -0.5,189.5C 0.791047,189.737 1.79105,189.404 2.5,188.5C 4.27264,186.567 6.43931,185.234 9,184.5C 10.7565,185.985 11.9232,185.652 12.5,183.5C 13.1667,183.5 13.5,183.167 13.5,182.5 Z"/></g>
<g><path style="opacity:1" fill="#8bcfd0" d="M 15.5,188.5 C 15.3893,189.117 15.056,189.617 14.5,190C 11.4869,190.502 8.48693,191.002 5.5,191.5C 7.35168,188.745 10.0183,187.079 13.5,186.5C 14.1818,187.243 14.8485,187.909 15.5,188.5 Z"/></g>
<g><path style="opacity:1" fill="#d8f2f2" d="M 137.5,171.5 C 134.965,177.842 133.965,184.509 134.5,191.5C 133.235,192.514 132.569,194.014 132.5,196C 132.798,198.848 133.131,201.681 133.5,204.5C 133.167,204.5 132.833,204.5 132.5,204.5C 132.737,203.209 132.404,202.209 131.5,201.5C 131.018,200.584 130.685,199.584 130.5,198.5C 131.731,190.845 132.897,183.179 134,175.5C 134.66,173.676 135.827,172.343 137.5,171.5 Z"/></g>
<g><path style="opacity:1" fill="#fdfefe" d="M 15.5,188.5 C 17.2624,188.357 18.9291,188.691 20.5,189.5C 21.3236,192.785 21.8236,196.118 22,199.5C 22.3826,200.056 22.8826,200.389 23.5,200.5C 23.5,201.833 23.5,203.167 23.5,204.5C 24.3,210.367 24.3,216.2 23.5,222C 23.8082,223.459 24.4749,224.626 25.5,225.5C 26.3382,225.842 26.6716,226.508 26.5,227.5C 27.3713,235.8 27.7047,244.133 27.5,252.5C 18.8333,252.5 10.1667,252.5 1.5,252.5C 1.5,234.167 1.5,215.833 1.5,197.5C 4.31975,196.535 5.65308,194.535 5.5,191.5C 8.48693,191.002 11.4869,190.502 14.5,190C 15.056,189.617 15.3893,189.117 15.5,188.5 Z"/></g>
<g><path style="opacity:1" fill="#cff6f6" d="M 20.5,185.5 C 22.2249,190.223 23.2249,195.223 23.5,200.5C 22.8826,200.389 22.3826,200.056 22,199.5C 21.8236,196.118 21.3236,192.785 20.5,189.5C 18.9291,188.691 17.2624,188.357 15.5,188.5C 16.8333,187.833 18.1667,187.167 19.5,186.5C 20.1667,186.5 20.5,186.167 20.5,185.5 Z"/></g>
<g><path style="opacity:1" fill="#edfcfc" d="M 230.5,180.5 C 230.457,184.893 230.957,185.226 232,181.5C 232.497,184.146 232.664,186.813 232.5,189.5C 232.372,195.453 233.039,195.787 234.5,190.5C 234.615,188.053 235.615,186.053 237.5,184.5C 238.434,185.568 238.768,186.901 238.5,188.5C 237.883,188.389 237.383,188.056 237,187.5C 236.667,190.167 236.333,192.833 236,195.5C 234.921,197.394 233.587,197.727 232,196.5C 231.076,192.056 229.909,187.722 228.5,183.5C 228.453,181.962 229.12,180.962 230.5,180.5 Z"/></g>
<g><path style="opacity:1" fill="#7fcecd" d="M -0.5,190.5 C 1.04432,190.703 2.37765,191.37 3.5,192.5C 4.18346,192.137 4.85013,191.804 5.5,191.5C 5.65308,194.535 4.31975,196.535 1.5,197.5C 0.833333,197.833 0.166667,198.167 -0.5,198.5C -0.5,195.833 -0.5,193.167 -0.5,190.5 Z"/></g>
<g><path style="opacity:1" fill="#b4d1cc" d="M 232.5,189.5 C 233.167,189.833 233.833,190.167 234.5,190.5C 233.039,195.787 232.372,195.453 232.5,189.5 Z"/></g>
<g><path style="opacity:1" fill="#e1f3f4" d="M 21.5,178.5 C 23.3888,177.258 25.3888,177.258 27.5,178.5C 27.2627,179.791 27.596,180.791 28.5,181.5C 27.8868,186.303 28.2201,188.637 29.5,188.5C 30.8333,188.5 32.1667,188.5 33.5,188.5C 32.9423,189.79 31.9423,190.623 30.5,191C 31.1667,191.333 31.8333,191.667 32.5,192C 31.8095,193.067 31.3095,194.234 31,195.5C 30.6667,194.5 30.3333,193.5 30,192.5C 29.8333,193.167 29.6667,193.833 29.5,194.5C 30.2035,197.778 30.2035,201.111 29.5,204.5C 28.5,203.167 27.5,201.833 26.5,200.5C 26.2537,195.609 25.5871,190.776 24.5,186C 24.7432,185.098 25.0766,184.265 25.5,183.5C 26.6633,180.294 25.33,178.627 21.5,178.5 Z"/></g>
<g><path style="opacity:1" fill="#ecfdfd" d="M 40.5,183.5 C 38.8075,189.264 37.9741,195.264 38,201.5C 37.7165,199.114 36.7165,198.448 35,199.5C 35.0533,202.675 34.22,205.342 32.5,207.5C 34.2132,200.659 35.8798,193.826 37.5,187C 37.9778,185.358 38.9778,184.191 40.5,183.5 Z"/></g>
<g><path style="opacity:1" fill="#eefdfc" d="M 119.5,182.5 C 119.833,182.5 120.167,182.5 120.5,182.5C 123.543,188.333 125.21,194.667 125.5,201.5C 124.566,202.568 124.232,203.901 124.5,205.5C 122.993,203.711 121.66,201.711 120.5,199.5C 121.677,197.137 122.343,194.637 122.5,192C 121.345,188.863 120.345,185.696 119.5,182.5 Z"/></g>
<g><path style="opacity:1" fill="#62bebd" d="M 139.5,150.5 C 136.764,157.317 136.097,164.317 137.5,171.5C 135.827,172.343 134.66,173.676 134,175.5C 132.897,183.179 131.731,190.845 130.5,198.5C 130.685,199.584 131.018,200.584 131.5,201.5C 130.057,202.335 129.057,203.668 128.5,205.5C 127.479,204.099 126.479,202.765 125.5,201.5C 125.21,194.667 123.543,188.333 120.5,182.5C 122.334,181.506 124.001,181.506 125.5,182.5C 126.016,185.899 126.85,189.232 128,192.5C 128.998,187.18 129.831,181.847 130.5,176.5C 131.785,173.411 132.451,170.078 132.5,166.5C 132.5,165.5 132.5,164.5 132.5,163.5C 133.87,160.381 134.87,157.048 135.5,153.5C 136.302,152.048 136.802,150.382 137,148.5C 137.995,149.066 138.828,149.733 139.5,150.5 Z"/></g>
<g><path style="opacity:1" fill="#b9ecf2" d="M 26.5,200.5 C 27.5,201.833 28.5,203.167 29.5,204.5C 29.313,206.564 28.813,208.564 28,210.5C 27.1744,207.207 26.6744,203.874 26.5,200.5 Z"/></g>
<g><path style="opacity:1" fill="#8ecbcc" d="M 125.5,201.5 C 126.479,202.765 127.479,204.099 128.5,205.5C 129.057,203.668 130.057,202.335 131.5,201.5C 132.404,202.209 132.737,203.209 132.5,204.5C 130.468,205.561 129.134,207.228 128.5,209.5C 127.676,207.579 126.343,206.246 124.5,205.5C 124.232,203.901 124.566,202.568 125.5,201.5 Z"/></g>
<g><path style="opacity:1" fill="#bcebeb" d="M 23.5,204.5 C 25.3369,211.368 26.0036,218.368 25.5,225.5C 24.4749,224.626 23.8082,223.459 23.5,222C 24.3,216.2 24.3,210.367 23.5,204.5 Z"/></g>
<g><path style="opacity:1" fill="#e0faf9" d="M 32.5,207.5 C 32.5328,211.869 32.1995,216.202 31.5,220.5C 30.596,219.791 30.2627,218.791 30.5,217.5C 31.0101,214.017 31.6768,210.684 32.5,207.5 Z"/></g>
<g><path style="opacity:1" fill="#90d0d0" d="M 30.5,217.5 C 30.2627,218.791 30.596,219.791 31.5,220.5C 31.9754,223.313 30.9754,225.313 28.5,226.5C 28.8583,223.311 29.525,220.311 30.5,217.5 Z"/></g>
</svg>
